# xmcd CD database file
#
# Track frame offsets:
#	150
#	16176
#	40613
#	62454
#	78816
#	96654
#	117426
#	138667
#	155016
#
# Disc length: 2368 seconds
#
# Revision: 1
# Processed by: cddbd v1.5.1PL2 Copyright (c) Steve Scherf et al.
# Submitted via: CDValet v3.40 - Copyright (c) 1996 - 1998 Greg Leichner
#
DISCID=6e093e09
DTITLE=Mosser, Jonell - Work in Progress 2006
DYEAR=1900
DGENRE=
TTITLE0=Goodthing (Mosser, Britt)
TTITLE1=World in Motion (Jackson Browne)
TTITLE2=Dark End of the Street (Penn, Moman)
TTITLE3=Trust Yourself (Bob Dylan)
TTITLE4=Boy in the Bubble (Paul Simon)
TTITLE5=Mexican Divorce (Burt Bacharach)
TTITLE6=I Don't Wanna Be With Nobody But You (Eddie Floyd)
TTITLE7=Take a Giant Step (Carole King)
TTITLE8=Bottom Rail (Tom Britt)
EXTD=
EXTT0=
EXTT1=
EXTT2=
EXTT3=
EXTT4=
EXTT5=
EXTT6=
EXTT7=
EXTT8=
PLAYORDER=
